<svg width="400" height="400" viewBox="0 0 400 400" fill="none" xmlns="http://www.w3.org/2000/svg">
<path d="M200.354 0C189.369 0 178.354 0.127999 167.369 0.431999C110.754 2 53.3692 12.752 0 32L15.3846 48C60.5846 31.056 111.477 21.312 168.031 19.504C189.58 18.8165 211.144 18.8165 232.692 19.504C289.246 21.312 339.431 31.04 384.615 48L400 32C346.329 12.6818 290.127 2.03542 233.354 0.431999C222.354 0.111999 211.354 0 200.354 0ZM153.077 47.12C116.046 46.688 65.6923 48.96 30.7692 64C37.2 77.008 61.6 91.872 76.9231 96C77.7692 70.432 121.277 64 153.846 64L200 400L246.154 64C278.662 64 322.169 70.432 323.077 96C338.462 91.872 362.8 76.992 369.231 64C322.662 43.872 248.738 46.624 215.385 48L200 64L184.615 48C176.262 47.68 165.385 47.248 153.077 47.12Z" fill="#B70021"/>
</svg>
