<?xml version="1.0" encoding="UTF-8"?><svg xmlns="http://www.w3.org/2000/svg" xmlns:xlink="http://www.w3.org/1999/xlink" viewBox="0 0 32 32" version="1.1"><path d="M16.023 4c-.714 0-1.43.008-2.144.027C10.199 4.125 6.469 4.797 3 6l1 1c2.938-1.059 6.246-1.668 9.922-1.781a68.54 68.54 0 0 1 4.203 0C21.801 5.332 25.063 5.94 28 7l1-1a36.117 36.117 0 0 0-10.832-1.973c-.715-.02-1.43-.027-2.145-.027zM12.95 6.945C10.543 6.918 7.27 7.06 5 8c.418.813 2.004 1.742 3 2 .055-1.598 2.883-2 5-2l3 21 3-21c2.113 0 4.941.402 5 2 1-.258 2.582-1.188 3-2-3.027-1.258-7.832-1.086-10-1l-1 1-1-1c-.543-.02-1.25-.047-2.05-.055z" id="surface1"/><metadata><rdf:RDF xmlns:rdf="http://www.w3.org/1999/02/22-rdf-syntax-ns#" xmlns:rdfs="http://www.w3.org/2000/01/rdf-schema#" xmlns:dc="http://purl.org/dc/elements/1.1/"><rdf:Description about="https://iconscout.com/legal#licenses" dc:title="tesla" dc:description="tesla" dc:publisher="Iconscout" dc:date="2017-12-30" dc:format="image/svg+xml" dc:language="en"><dc:creator><rdf:Bag><rdf:li>Icons8</rdf:li></rdf:Bag></dc:creator></rdf:Description></rdf:RDF></metadata></svg>